<?xml version="1.0" encoding="utf-8"?>
<!-- Generator: Adobe Illustrator 26.0.3, SVG Export Plug-In . SVG Version: 6.00 Build 0)  -->
<svg version="1.1" id="Vrstva_1" xmlns="http://www.w3.org/2000/svg" xmlns:xlink="http://www.w3.org/1999/xlink" x="0px" y="0px"
	 viewBox="0 0 180 180" style="enable-background:new 0 0 180 180;" xml:space="preserve">
<style type="text/css">
	.st0{fill:#FFFFFF;}
	.st1{fill:#D3DD57;}
</style>
<g>
	<circle class="st0" cx="-88.4" cy="75.9" r="24.3"/>
	<circle class="st0" cx="-88.4" cy="75.9" r="24.3"/>
	<circle class="st0" cx="-88.4" cy="75.9" r="24.3"/>
	<circle class="st0" cx="-88.4" cy="75.9" r="24.3"/>
	<circle class="st0" cx="-88.4" cy="75.9" r="24.3"/>
</g>
<g>
	<g>
		<path d="M21.3,89.2c2.6,0,4.6,0.5,5.9,1.4c1.4,0.9,2.1,2.4,2.1,4.4c0,1-0.2,1.9-0.5,2.7c-0.4,0.7-0.9,1.3-1.6,1.8s-1.5,0.8-2.6,1
			c-1,0.2-2.2,0.3-3.5,0.3h-1.6v6.2h-3.2V89.6c0.8-0.2,1.6-0.3,2.5-0.3C19.7,89.2,20.6,89.2,21.3,89.2z M21.6,91.9
			c-0.8,0-1.5,0-2,0.1v6h1.6c1.5,0,2.8-0.2,3.6-0.7c0.8-0.4,1.2-1.3,1.2-2.5c0-0.6-0.1-1.1-0.3-1.5s-0.5-0.7-0.9-0.9
			s-0.9-0.4-1.4-0.5C22.8,92,22.2,91.9,21.6,91.9z"/>
		<path d="M37.3,89.2c2.6,0,4.5,0.5,5.9,1.4c1.4,0.9,2.1,2.4,2.1,4.4c0,1-0.2,1.9-0.5,2.7s-0.9,1.3-1.6,1.8c-0.7,0.5-1.5,0.8-2.6,1
			s-2.2,0.3-3.5,0.3h-1.6v6.2h-3.2V89.6c0.8-0.2,1.6-0.3,2.5-0.3C35.7,89.2,36.5,89.2,37.3,89.2z M37.5,91.9c-0.8,0-1.5,0-2,0.1v6
			H37c1.5,0,2.8-0.2,3.6-0.7c0.8-0.4,1.2-1.3,1.2-2.5c0-0.6-0.1-1.1-0.3-1.5s-0.5-0.7-0.9-0.9s-0.9-0.4-1.4-0.5
			C38.7,92,38.1,91.9,37.5,91.9z"/>
		<path d="M56.1,107.4c-1.3,0-2.5-0.2-3.6-0.6c-1.1-0.4-2-1-2.7-1.8c-0.7-0.8-1.3-1.8-1.7-2.9s-0.6-2.5-0.6-3.9s0.2-2.8,0.7-3.9
			s1.1-2.1,1.9-2.9s1.7-1.4,2.8-1.8c1.1-0.4,2.2-0.6,3.4-0.6c0.7,0,1.4,0.1,2,0.2s1.1,0.2,1.6,0.4c0.4,0.1,0.8,0.3,1.1,0.4
			c0.3,0.2,0.5,0.3,0.6,0.3l-1,2.6c-0.4-0.3-1-0.5-1.8-0.7s-1.6-0.3-2.5-0.3c-0.8,0-1.5,0.1-2.2,0.4c-0.7,0.3-1.2,0.7-1.7,1.2
			c-0.5,0.5-0.9,1.2-1.1,2c-0.3,0.8-0.4,1.7-0.4,2.8c0,0.9,0.1,1.8,0.3,2.6s0.5,1.5,1,2s1,1,1.7,1.3s1.5,0.5,2.5,0.5
			c1.1,0,2.1-0.1,2.8-0.3c0.7-0.2,1.3-0.4,1.7-0.7l0.9,2.6c-0.2,0.1-0.5,0.3-0.8,0.4c-0.3,0.1-0.8,0.3-1.2,0.4
			c-0.5,0.1-1,0.2-1.6,0.3C57.4,107.4,56.8,107.4,56.1,107.4z"/>
		<path class="st1" d="M72.4,91.8c-1.8,0-3.2,0.6-4.2,1.7s-1.4,2.7-1.4,4.7c0,1,0.1,1.8,0.3,2.6c0.2,0.8,0.6,1.5,1,2s1,1,1.7,1.3
			c0.7,0.3,1.5,0.5,2.4,0.5c0.6,0,1.1,0,1.5-0.1c0.4,0,0.7-0.1,1-0.2V98h3.2v8.5c-0.4,0.2-1.2,0.4-2.2,0.6c-1.1,0.2-2.3,0.3-3.7,0.3
			c-1.3,0-2.4-0.2-3.5-0.6c-1.1-0.4-2-1-2.7-1.8s-1.3-1.8-1.7-2.9s-0.6-2.5-0.6-3.9s0.2-2.8,0.7-3.9c0.4-1.1,1.1-2.1,1.9-2.9
			s1.7-1.4,2.8-1.8c1.1-0.4,2.2-0.6,3.4-0.6c0.8,0,1.6,0.1,2.2,0.2s1.2,0.2,1.7,0.4c0.5,0.1,0.8,0.3,1.1,0.4
			c0.3,0.2,0.5,0.3,0.6,0.3l-1,2.6c-0.5-0.3-1.2-0.6-1.9-0.8C74,91.9,73.2,91.8,72.4,91.8z"/>
		<path class="st1" d="M93.3,107.1c-0.2-0.7-0.5-1.4-0.8-2.1s-0.5-1.4-0.7-2.1h-7.5c-0.2,0.7-0.5,1.4-0.7,2.1s-0.5,1.4-0.7,2.1h-3.3
			c0.7-1.9,1.3-3.6,1.9-5.2c0.6-1.6,1.2-3.1,1.8-4.6c0.6-1.4,1.1-2.8,1.7-4.1c0.6-1.3,1.1-2.6,1.7-3.8h3.1c0.6,1.3,1.2,2.5,1.7,3.8
			c0.6,1.3,1.1,2.7,1.7,4.1c0.6,1.4,1.2,2.9,1.8,4.6c0.6,1.6,1.2,3.3,1.9,5.2H93.3z M88.1,92.8c-0.4,0.9-0.8,2-1.3,3.3
			s-1,2.7-1.6,4.2H91c-0.6-1.5-1.1-2.9-1.6-4.2C88.9,94.7,88.5,93.6,88.1,92.8z"/>
		<path class="st1" d="M103.9,89.2c2.6,0,4.5,0.5,5.9,1.4c1.4,0.9,2,2.4,2,4.3c0,2.4-1.2,4-3.6,4.9c0.3,0.4,0.7,0.9,1.1,1.4
			c0.4,0.6,0.8,1.2,1.2,1.8c0.4,0.7,0.8,1.3,1.2,2c0.4,0.7,0.7,1.4,1.1,2h-3.6c-0.3-0.6-0.7-1.2-1.1-1.9c-0.4-0.6-0.8-1.2-1.1-1.8
			c-0.4-0.6-0.8-1.1-1.1-1.7c-0.4-0.5-0.7-1-1.1-1.4c-0.2,0-0.4,0-0.6,0s-0.3,0-0.5,0h-1.6v6.7H99V89.6c0.8-0.2,1.6-0.3,2.5-0.3
			C102.4,89.2,103.2,89.2,103.9,89.2z M104.2,91.9c-0.7,0-1.3,0-1.9,0.1v5.7h1.4c0.8,0,1.5,0,2.1-0.1c0.6-0.1,1.1-0.2,1.5-0.5
			s0.7-0.5,0.9-0.9c0.2-0.4,0.3-0.8,0.3-1.4c0-0.6-0.1-1-0.3-1.4c-0.2-0.4-0.5-0.7-0.9-0.9c-0.4-0.2-0.8-0.4-1.4-0.5
			C105.4,92,104.8,91.9,104.2,91.9z"/>
		<path class="st1" d="M134,107.1V89.3h11.4v2.7h-8.2v4.4h7.3v2.7h-7.3v5.2h8.8v2.7L134,107.1L134,107.1z"/>
		<path class="st1" d="M160.9,107.1c-0.6-1-1.2-2-1.9-3.1c-0.7-1.1-1.5-2.2-2.2-3.4c-0.8-1.1-1.6-2.2-2.3-3.3s-1.6-2-2.3-2.9v12.7
			H149V89.3h2.6c0.7,0.7,1.4,1.6,2.2,2.6s1.6,2,2.4,3.1c0.8,1.1,1.6,2.1,2.3,3.2s1.4,2.1,2,3V89.3h3.2v17.7H160.9z"/>
	</g>
	<g>
		<g>
			<g>
				<g>
					<path class="st1" d="M129.8,94.1c-0.5-1.1-1.1-2.1-2.1-2.8c-0.9-0.7-1.9-1.3-3.2-1.6c-1.2-0.4-2.6-0.5-4.1-0.5
						c-0.6,0-1.2,0-1.9,0v-2.6c6.2-0.8,11-6.1,11-12.5c0-0.9-0.7-1.6-1.6-1.6c-4.6,0-8.8,2.5-11,6.5c-2.2-4-6.4-6.5-11-6.5
						c-0.9,0-1.6,0.7-1.6,1.6c0,6.3,4.8,11.7,11,12.5l0,20.2c0.8,0.2,1.7,0.3,2.6,0.4c0.9,0.1,1.7,0.1,2.4,0.1
						c1.5,0,2.9-0.2,4.1-0.6c1.2-0.4,2.3-0.9,3.2-1.7c0.9-0.8,1.6-1.7,2-2.9c0.5-1.1,0.7-2.4,0.7-4
						C130.5,96.6,130.2,95.3,129.8,94.1z M126.3,75.8c-0.7,3.9-3.8,6.9-7.6,7.6C119.4,79.6,122.5,76.5,126.3,75.8z M107.7,75.8
						c3.8,0.7,6.9,3.8,7.6,7.6C111.4,82.7,108.4,79.7,107.7,75.8z M125.5,102.8c-1.1,1.1-2.7,1.7-4.8,1.7c-0.5,0-1,0-1.3,0
						c-0.3,0-0.6,0-0.8,0V92c0.4,0,1.1-0.1,2.1-0.1c2.2,0,3.8,0.5,4.8,1.6c1,1.1,1.6,2.6,1.6,4.7
						C127.1,100.2,126.6,101.7,125.5,102.8z"/>
				</g>
			</g>
		</g>
	</g>
</g>
<g>
	<g>
		<g>
			<g>
				<path class="st1" d="M-86.9,76.5c6.2-0.8,11-6.1,11-12.5c0-0.9-0.7-1.6-1.6-1.6c-4.6,0-8.8,2.5-11,6.5c-2.2-4-6.4-6.5-11-6.5
					c-0.9,0-1.6,0.7-1.6,1.6c0,6.3,4.8,11.7,11,12.5l0,16.4h3.1L-86.9,76.5z M-79.1,65.7c-0.7,3.9-3.8,6.9-7.6,7.6
					C-86,69.4-83,66.4-79.1,65.7z M-97.7,65.7c3.8,0.7,6.9,3.8,7.6,7.6C-94,72.6-97,69.5-97.7,65.7z"/>
			</g>
		</g>
	</g>
</g>
<g>
	<circle class="st0" cx="-63.9" cy="138.7" r="24.3"/>
	<circle class="st0" cx="-63.9" cy="138.7" r="24.3"/>
	<circle class="st0" cx="-63.9" cy="138.7" r="24.3"/>
	<circle class="st0" cx="-63.9" cy="138.7" r="24.3"/>
	<circle cx="-63.9" cy="138.7" r="24.3"/>
</g>
<g>
	<g>
		<g>
			<g>
				<path class="st0" d="M-62.4,139.3c6.2-0.8,11-6.1,11-12.5c0-0.9-0.7-1.6-1.6-1.6c-4.6,0-8.8,2.5-11,6.5c-2.2-4-6.4-6.5-11-6.5
					c-0.9,0-1.6,0.7-1.6,1.6c0,6.3,4.8,11.7,11,12.5l0,16.4h3.1L-62.4,139.3z M-54.6,128.5c-0.7,3.9-3.8,6.9-7.6,7.6
					C-61.5,132.2-58.5,129.2-54.6,128.5z M-73.2,128.5c3.8,0.7,6.9,3.8,7.6,7.6C-69.5,135.4-72.5,132.3-73.2,128.5z"/>
			</g>
		</g>
	</g>
</g>
<g>
	<circle class="st0" cx="-122" cy="123.5" r="24.3"/>
	<circle class="st0" cx="-122" cy="123.5" r="24.3"/>
	<circle class="st0" cx="-122" cy="123.5" r="24.3"/>
	<circle class="st0" cx="-122" cy="123.5" r="24.3"/>
	<circle cx="-122" cy="123.5" r="24.3"/>
</g>
<g>
	<g>
		<g>
			<g>
				<path class="st0" d="M-120.5,124c6.2-0.8,11-6.1,11-12.5c0-0.9-0.7-1.6-1.6-1.6c-4.6,0-8.8,2.5-11,6.5c-2.2-4-6.4-6.5-11-6.5
					c-0.9,0-1.6,0.7-1.6,1.6c0,6.3,4.8,11.7,11,12.5l0,16.4h3.1L-120.5,124z M-112.7,113.2c-0.7,3.9-3.8,6.9-7.6,7.6
					C-119.6,117-116.5,113.9-112.7,113.2z M-131.3,113.2c3.8,0.7,6.9,3.8,7.6,7.6C-127.6,120.1-130.6,117.1-131.3,113.2z"/>
			</g>
		</g>
	</g>
</g>
</svg>
